<svg xmlns="http://www.w3.org/2000/svg" width="168" height="168">
  <path fill="#fff" d="M68.5 42.598c-12.624.269-25.308 1.713-37.436 5.338-4.095 1.192-7.069 5.308-6.926 9.569.011 4.102 2.887 7.977 6.808 9.181 2.249.768 4.706.536 6.914-.254 6.301-1.806 12.87-2.878 19.33-3.52 1.112-.101 2.472-.223 3.616-.301 5.08-.369 10.238-.458 15.274-.33 3.816.107 7.798.36 11.461.725a151.4 151.4 0 018.691 1.124c3.707.586 7.423 1.327 11.002 2.209 8.941 2.201 17.772 5.388 25.758 10.169 3.494 1.849 8.077 1.313 11.02-1.342 3.142-2.68 4.238-7.42 2.584-11.205-.942-2.343-2.88-4.145-5.112-5.258-11.878-6.79-25.125-10.882-38.531-13.35C91.6 43.28 80.035 42.402 68.5 42.597z"/>
  <path fill="#1ed760" d="M83.996.277C37.747.277.254 37.771.254 84.02c0 46.25 37.493 83.74 83.742 83.74 46.254 0 83.744-37.49 83.744-83.74C167.74 37.774 130.25.28 83.994.28zM71.252 44.568c24.36-.062 50.85 4.938 70.271 16.467a7.825 7.825 0 012.74 10.735c-2.2 3.722-7.02 4.948-10.73 2.738h-.004c-26.99-16.031-71.52-17.505-97.289-9.684-4.138 1.255-8.513-1.08-9.767-5.219a7.836 7.836 0 015.22-9.771c11.093-3.368 24.943-5.228 39.559-5.266z"/>
  <g fill="#fff" stroke-width="1.518" aria-label="Now" font-family="Roboto" font-size="60.723" font-weight="900" letter-spacing="0" style="line-height:1.25" word-spacing="0">
    <path d="M61.656 116.302H51.308L36.01 89.439v26.863H25.602v-43.17h10.407l15.27 26.863V73.132h10.377zM66.519 99.965q0-4.803 1.867-8.54 1.868-3.765 5.367-5.78 3.499-2.017 8.213-2.017 7.205 0 11.356 4.477 4.15 4.448 4.15 12.127v.356q0 7.501-4.18 11.919-4.15 4.388-11.267 4.388-6.849 0-11-4.092-4.15-4.121-4.477-11.148zm9.992.623q0 4.447 1.393 6.523 1.394 2.075 4.121 2.075 5.337 0 5.456-8.213v-1.008q0-8.628-5.515-8.628-5.01 0-5.426 7.442zM129.583 103.137l3.232-18.916h9.577l-7.56 32.081h-8.45l-5.308-19.035-5.337 19.035h-8.45l-7.56-32.081h9.576l3.173 19.361 5.1-19.361h6.967z" style="-inkscape-font-specification:'Roboto Heavy'"/>
  </g>
</svg>
